<svg width="2514" height="400" viewBox="0 0 2514 400" fill="none" xmlns="http://www.w3.org/2000/svg">
<path d="M0.5 168.5L59 110L72 128.5C61.1667 139.833 37.4 164.3 29 171.5C20.6 178.7 25.5 187.167 29 190.5L150 311.5V228H174.5V311.5C192 294.333 228 258.8 232 254C236 249.2 233.667 245.333 232 244L191 203H88V80.5L138 30.5H180L321 171.5V194.5L281.258 235L270 215.5C279 206.333 297.6 187.5 300 185.5C302.4 183.5 301 179 300 177L174.5 51.5V149H150V51.5L110.5 91V181.5H198C214.167 196.667 248.2 229.3 255 238.5C261.8 247.7 257.833 254.667 255 257L180 332H138L0.5 194.5V168.5Z" fill="#06B6D4" stroke="#06B6D4"/>
<path d="M590.1 304H550.2L430.15 122.35V304H390.25V60.4H430.15L550.2 241.7V60.4H590.1V304ZM819.246 202.85C819.246 210.083 818.779 216.617 817.846 222.45H670.496C671.663 237.85 677.379 250.217 687.646 259.55C697.913 268.883 710.513 273.55 725.446 273.55C746.913 273.55 762.079 264.567 770.946 246.6H813.996C808.163 264.333 797.546 278.917 782.146 290.35C766.979 301.55 748.079 307.15 725.446 307.15C707.013 307.15 690.446 303.067 675.746 294.9C661.279 286.5 649.846 274.833 641.446 259.9C633.279 244.733 629.196 227.233 629.196 207.4C629.196 187.567 633.163 170.183 641.096 155.25C649.263 140.083 660.579 128.417 675.046 120.25C689.746 112.083 706.546 108 725.446 108C743.646 108 759.863 111.967 774.096 119.9C788.329 127.833 799.413 139.033 807.346 153.5C815.279 167.733 819.246 184.183 819.246 202.85ZM777.596 190.25C777.363 175.55 772.113 163.767 761.846 154.9C751.579 146.033 738.863 141.6 723.696 141.6C709.929 141.6 698.146 146.033 688.346 154.9C678.546 163.533 672.713 175.317 670.846 190.25H777.596ZM942.162 307.15C923.962 307.15 907.512 303.067 892.812 294.9C878.112 286.5 866.562 274.833 858.162 259.9C849.762 244.733 845.562 227.233 845.562 207.4C845.562 187.8 849.878 170.417 858.512 155.25C867.145 140.083 878.928 128.417 893.862 120.25C908.795 112.083 925.478 108 943.912 108C962.345 108 979.028 112.083 993.962 120.25C1008.9 128.417 1020.68 140.083 1029.31 155.25C1037.95 170.417 1042.26 187.8 1042.26 207.4C1042.26 227 1037.83 244.383 1028.96 259.55C1020.1 274.717 1007.96 286.5 992.562 294.9C977.395 303.067 960.595 307.15 942.162 307.15ZM942.162 272.5C952.428 272.5 961.995 270.05 970.862 265.15C979.962 260.25 987.312 252.9 992.912 243.1C998.512 233.3 1001.31 221.4 1001.31 207.4C1001.31 193.4 998.628 181.617 993.262 172.05C987.895 162.25 980.778 154.9 971.912 150C963.045 145.1 953.478 142.65 943.212 142.65C932.945 142.65 923.378 145.1 914.512 150C905.878 154.9 898.995 162.25 893.862 172.05C888.728 181.617 886.162 193.4 886.162 207.4C886.162 228.167 891.412 244.267 901.912 255.7C912.645 266.9 926.062 272.5 942.162 272.5Z" fill="#06B6D4"/>
<path d="M1068.41 181.85C1068.41 158.05 1073.89 136.7 1084.86 117.8C1096.06 98.9 1111.11 84.2 1130.01 73.7C1149.14 62.9666 1170.02 57.6 1192.66 57.6C1218.56 57.6 1241.54 64.0166 1261.61 76.85C1281.91 89.45 1296.61 107.417 1305.71 130.75H1257.76C1251.46 117.917 1242.71 108.35 1231.51 102.05C1220.31 95.75 1207.36 92.6 1192.66 92.6C1176.56 92.6 1162.21 96.2167 1149.61 103.45C1137.01 110.683 1127.09 121.067 1119.86 134.6C1112.86 148.133 1109.36 163.883 1109.36 181.85C1109.36 199.817 1112.86 215.567 1119.86 229.1C1127.09 242.633 1137.01 253.133 1149.61 260.6C1162.21 267.833 1176.56 271.45 1192.66 271.45C1207.36 271.45 1220.31 268.3 1231.51 262C1242.71 255.7 1251.46 246.133 1257.76 233.3H1305.71C1296.61 256.633 1281.91 274.6 1261.61 287.2C1241.54 299.8 1218.56 306.1 1192.66 306.1C1169.79 306.1 1148.91 300.85 1130.01 290.35C1111.11 279.617 1096.06 264.8 1084.86 245.9C1073.89 227 1068.41 205.65 1068.41 181.85ZM1339.11 206.7C1339.11 187.333 1343.07 170.183 1351.01 155.25C1359.17 140.317 1370.14 128.767 1383.91 120.6C1397.91 112.2 1413.31 108 1430.11 108C1445.27 108 1458.46 111.033 1469.66 117.1C1481.09 122.933 1490.19 130.283 1496.96 139.15V111.15H1537.21V304H1496.96V275.3C1490.19 284.4 1480.97 291.983 1469.31 298.05C1457.64 304.117 1444.34 307.15 1429.41 307.15C1412.84 307.15 1397.67 302.95 1383.91 294.55C1370.14 285.917 1359.17 274.017 1351.01 258.85C1343.07 243.45 1339.11 226.067 1339.11 206.7ZM1496.96 207.4C1496.96 194.1 1494.16 182.55 1488.56 172.75C1483.19 162.95 1476.07 155.483 1467.21 150.35C1458.34 145.217 1448.77 142.65 1438.51 142.65C1428.24 142.65 1418.67 145.217 1409.81 150.35C1400.94 155.25 1393.71 162.6 1388.11 172.4C1382.74 181.967 1380.06 193.4 1380.06 206.7C1380.06 220 1382.74 231.667 1388.11 241.7C1393.71 251.733 1400.94 259.433 1409.81 264.8C1418.91 269.933 1428.47 272.5 1438.51 272.5C1448.77 272.5 1458.34 269.933 1467.21 264.8C1476.07 259.667 1483.19 252.2 1488.56 242.4C1494.16 232.367 1496.96 220.7 1496.96 207.4ZM1629.52 139.15C1635.35 129.35 1643.05 121.767 1652.62 116.4C1662.42 110.8 1673.97 108 1687.27 108V149.3H1677.12C1661.48 149.3 1649.58 153.267 1641.42 161.2C1633.48 169.133 1629.52 182.9 1629.52 202.5V304H1589.62V111.15H1629.52V139.15ZM1801.64 108C1816.57 108 1829.76 111.033 1841.19 117.1C1852.86 122.933 1861.96 130.283 1868.49 139.15V111.15H1908.74V307.15C1908.74 324.883 1905.01 340.633 1897.54 354.4C1890.07 368.4 1879.22 379.367 1864.99 387.3C1850.99 395.233 1834.19 399.2 1814.59 399.2C1788.46 399.2 1766.76 393.017 1749.49 380.65C1732.22 368.517 1722.42 351.95 1720.09 330.95H1759.64C1762.67 340.983 1769.09 349.033 1778.89 355.1C1788.92 361.4 1800.82 364.55 1814.59 364.55C1830.69 364.55 1843.64 359.65 1853.44 349.85C1863.47 340.05 1868.49 325.817 1868.49 307.15V274.95C1861.72 284.05 1852.51 291.75 1840.84 298.05C1829.41 304.117 1816.34 307.15 1801.64 307.15C1784.84 307.15 1769.44 302.95 1755.44 294.55C1741.67 285.917 1730.71 274.017 1722.54 258.85C1714.61 243.45 1710.64 226.067 1710.64 206.7C1710.64 187.333 1714.61 170.183 1722.54 155.25C1730.71 140.317 1741.67 128.767 1755.44 120.6C1769.44 112.2 1784.84 108 1801.64 108ZM1868.49 207.4C1868.49 194.1 1865.69 182.55 1860.09 172.75C1854.72 162.95 1847.61 155.483 1838.74 150.35C1829.87 145.217 1820.31 142.65 1810.04 142.65C1799.77 142.65 1790.21 145.217 1781.34 150.35C1772.47 155.25 1765.24 162.6 1759.64 172.4C1754.27 181.967 1751.59 193.4 1751.59 206.7C1751.59 220 1754.27 231.667 1759.64 241.7C1765.24 251.733 1772.47 259.433 1781.34 264.8C1790.44 269.933 1800.01 272.5 1810.04 272.5C1820.31 272.5 1829.87 269.933 1838.74 264.8C1847.61 259.667 1854.72 252.2 1860.09 242.4C1865.69 232.367 1868.49 220.7 1868.49 207.4ZM2044.8 307.15C2026.6 307.15 2010.15 303.067 1995.45 294.9C1980.75 286.5 1969.2 274.833 1960.8 259.9C1952.4 244.733 1948.2 227.233 1948.2 207.4C1948.2 187.8 1952.52 170.417 1961.15 155.25C1969.78 140.083 1981.57 128.417 1996.5 120.25C2011.43 112.083 2028.12 108 2046.55 108C2064.98 108 2081.67 112.083 2096.6 120.25C2111.53 128.417 2123.32 140.083 2131.95 155.25C2140.58 170.417 2144.9 187.8 2144.9 207.4C2144.9 227 2140.47 244.383 2131.6 259.55C2122.73 274.717 2110.6 286.5 2095.2 294.9C2080.03 303.067 2063.23 307.15 2044.8 307.15ZM2044.8 272.5C2055.07 272.5 2064.63 270.05 2073.5 265.15C2082.6 260.25 2089.95 252.9 2095.55 243.1C2101.15 233.3 2103.95 221.4 2103.95 207.4C2103.95 193.4 2101.27 181.617 2095.9 172.05C2090.53 162.25 2083.42 154.9 2074.55 150C2065.68 145.1 2056.12 142.65 2045.85 142.65C2035.58 142.65 2026.02 145.1 2017.15 150C2008.52 154.9 2001.63 162.25 1996.5 172.05C1991.37 181.617 1988.8 193.4 1988.8 207.4C1988.8 228.167 1994.05 244.267 2004.55 255.7C2015.28 266.9 2028.7 272.5 2044.8 272.5Z" fill="#FFFFFF"/>
</svg>