<svg width="322" height="303" viewBox="0 0 322 303" fill="none" xmlns="http://www.w3.org/2000/svg">
<path d="M1 139L59.5 80.5L72.5 99C61.6667 110.333 37.9 134.8 29.5 142C21.1 149.2 26 157.667 29.5 161L150.5 282V198.5H175V282C192.5 264.833 228.5 229.3 232.5 224.5C236.5 219.7 234.167 215.833 232.5 214.5L191.5 173.5H88.5V51L138.5 1H180.5L321.5 142V165L281.758 205.5L270.5 186C279.5 176.833 298.1 158 300.5 156C302.9 154 301.5 149.5 300.5 147.5L175 22V119.5H150.5V22L111 61.5V152H198.5C214.667 167.167 248.7 199.8 255.5 209C262.3 218.2 258.333 225.167 255.5 227.5L180.5 302.5H138.5L1 165V139Z" fill="#06B6D4" stroke="#06B6D4"/>
</svg>
